<?xml version="1.0" encoding="UTF-8"?>
<svg width="200px" height="200px" viewBox="0 0 200 200" version="1.1" xmlns="http://www.w3.org/2000/svg" xmlns:xlink="http://www.w3.org/1999/xlink">
    <title>western-mich_BGL</title>
    <defs>
        <polygon id="path-1" points="0 0 199.969533 0 199.969533 200 0 200"></polygon>
    </defs>
    <g id="western-mich_BGL" stroke="none" stroke-width="1" fill="none" fill-rule="evenodd">
        <g id="Western-Michigan-Copy">
            <g id="Group-4">
                <mask id="mask-2" fill="white">
                    <use xlink:href="#path-1"></use>
                </mask>
                <g id="Clip-2"></g>
                <path d="M197.177785,99.9997461 C197.177785,154.124024 154.093558,197.208251 99.9692796,197.208251 C45.8455094,197.208251 2.76128213,154.124024 2.76128213,99.9997461 C2.76128213,45.8759759 45.8455094,2.79174865 99.9692796,2.79174865 C154.093558,2.79174865 197.177785,45.8759759 197.177785,99.9997461" id="Fill-1" fill="#3B1C0E" mask="url(#mask-2)"></path>
                <path d="M99.9692796,0 C44.7410981,0 -0.0304665186,44.7715646 -0.0304665186,99.9997461 C-0.0304665186,155.228435 44.7410981,200 99.9692796,200 C155.197969,200 199.969533,155.228435 199.969533,99.9997461 C199.969533,44.7715646 155.197969,0 99.9692796,0 Z M99.9692796,5.55556966 C112.722056,5.55556966 125.08994,8.05179308 136.729673,12.9751825 C142.324849,15.3419232 147.721485,18.271279 152.770295,21.6820057 C157.77239,25.0612504 162.47642,28.9426849 166.751888,33.2176452 C171.026849,37.4931133 174.908283,42.1971438 178.287528,47.1992383 C181.698255,52.2480482 184.62761,57.6446842 186.994351,63.2398604 C191.91774,74.8795938 194.413964,87.247477 194.413964,99.9997461 C194.413964,112.752523 191.91774,125.120406 186.994351,136.76014 C184.62761,142.355316 181.698255,147.751952 178.287528,152.800762 C174.908283,157.802856 171.026849,162.506887 166.751888,166.782355 C162.47642,171.057315 157.77239,174.93875 152.770295,178.317994 C147.721485,181.728721 142.324849,184.658077 136.729673,187.024818 C125.08994,191.948207 112.722056,194.44443 99.9692796,194.44443 C87.2170105,194.44443 74.8491273,191.948207 63.2093938,187.024818 C57.6142177,184.658077 52.2175817,181.728721 47.1687718,178.317994 C42.1666772,174.93875 37.4626468,171.057315 33.1871787,166.782355 C28.9122183,162.506887 25.0307839,157.802856 21.6515392,152.800762 C18.2408124,147.751952 15.3114567,142.355316 12.944716,136.76014 C8.02132656,125.120406 5.52510314,112.752523 5.52510314,99.9997461 C5.52510314,87.247477 8.02132656,74.8795938 12.944716,63.2398604 C15.3114567,57.6446842 18.2408124,52.2480482 21.6515392,47.1992383 C25.0307839,42.1971438 28.9122183,37.4931133 33.1871787,33.2176452 C37.4626468,28.9426849 42.1666772,25.0612504 47.1687718,21.6820057 C52.2175817,18.271279 57.6142177,15.3419232 63.2093938,12.9751825 C74.8491273,8.05179308 87.2170105,5.55556966 99.9692796,5.55556966 L99.9692796,5.55556966 Z" id="Fill-3" fill="#FAD11F" mask="url(#mask-2)"></path>
            </g>
            <polyline id="Fill-5" fill="#FAD11F" points="125.458585 52.4719772 125.458585 72.883529 131.890067 72.883529 123.093367 108.409521 109.784576 52.4719772 90.1549984 52.4719772 76.8467153 108.409521 68.0495081 72.8830213 74.4814979 72.8830213 74.4814979 52.4719772 38.3035227 52.4719772 38.3035227 72.8921612 43.5158362 72.8921612 65.6456998 159.138305 85.9206601 159.138305 99.9697874 104.384894 114.019422 159.138305 134.293875 159.138305 156.424246 72.8921612 161.63656 72.8921612 161.63656 52.4719772 125.458585 52.4719772"></polyline>
        </g>
    </g>
</svg>